<svg version="1.1" viewBox="0.0 0.0 960.0 540.0" fill="none" stroke="none" stroke-linecap="square" stroke-miterlimit="10" xmlns:xlink="http://www.w3.org/1999/xlink" xmlns="http://www.w3.org/2000/svg"><clipPath id="g3d04d765b3c_0_125.0"><path d="m0 0l960.0 0l0 540.0l-960.0 0l0 -540.0z" clip-rule="nonzero"/></clipPath><g clip-path="url(#g3d04d765b3c_0_125.0)"><path fill="#ffffff" d="m0 0l960.0 0l0 540.0l-960.0 0z" fill-rule="evenodd"/><path stroke="#9e9e9e" stroke-width="1.0" stroke-linecap="butt" d="m217.62862 243.42651l0 125.78476" fill-rule="nonzero"/><path stroke="#9e9e9e" stroke-width="1.0" stroke-linecap="butt" d="m375.1509 243.42651l0 125.78476" fill-rule="nonzero"/><path stroke="#9e9e9e" stroke-width="1.0" stroke-linecap="butt" d="m217.12993 243.9252l158.51967 0" fill-rule="nonzero"/><path stroke="#9e9e9e" stroke-width="1.0" stroke-linecap="butt" d="m217.12993 285.521l158.51967 0" fill-rule="nonzero"/><path stroke="#9e9e9e" stroke-width="1.0" stroke-linecap="butt" d="m217.12993 327.1168l158.51967 0" fill-rule="nonzero"/><path stroke="#9e9e9e" stroke-width="1.0" stroke-linecap="butt" d="m217.12993 368.7126l158.51967 0" fill-rule="nonzero"/><path fill="#000000" d="m269.9304 260.2983l-2.75 0l0 -1.359375l7.125 0l0 1.359375l-2.734375 0l0 9.15625l2.734375 0l0 1.390625l-7.125 0l0 -1.390625l2.75 0l0 -9.15625zm15.132294 10.546875l-2.125 0l-3.46875 -7.421875l-1.0 -2.390625l0 6.0l0 3.8125l-1.515625 0l0 -11.90625l2.09375 0l3.3125 7.03125l1.1875 2.71875l0 -6.375l0 -3.375l1.515625 0l0 11.90625zm10.147919 -3.21875q0 0.84375 -0.34375 1.484375q-0.34375 0.625 -0.96875 1.0625q-0.609375 0.421875 -1.484375 0.625q-0.875 0.203125 -1.921875 0.203125q-0.46875 0 -0.9375 -0.03125q-0.46875 -0.03125 -0.90625 -0.09375q-0.421875 -0.046875 -0.8125 -0.109375q-0.375 -0.078125 -0.6875 -0.171875l0 -1.5625q0.671875 0.25 1.515625 0.40625q0.859375 0.140625 1.953125 0.140625q0.78125 0 1.328125 -0.125q0.5625 -0.125 0.90625 -0.359375q0.34375 -0.25 0.5 -0.59375q0.171875 -0.34375 0.171875 -0.796875q0 -0.46875 -0.28125 -0.8125q-0.265625 -0.34375 -0.703125 -0.609375q-0.4375 -0.28125 -1.0 -0.5q-0.546875 -0.21875 -1.140625 -0.453125q-0.578125 -0.234375 -1.140625 -0.515625q-0.5625 -0.28125 -1.0 -0.65625q-0.4375 -0.375 -0.703125 -0.890625q-0.265625 -0.515625 -0.265625 -1.21875q0 -0.609375 0.25 -1.1875q0.265625 -0.59375 0.796875 -1.046875q0.53125 -0.46875 1.375 -0.75q0.84375 -0.28125 2.015625 -0.28125q0.296875 0 0.640625 0.03125q0.359375 0.015625 0.71875 0.0625q0.359375 0.046875 0.703125 0.125q0.359375 0.0625 0.65625 0.125l0 1.46875q-0.703125 -0.203125 -1.40625 -0.3125q-0.6875 -0.109375 -1.34375 -0.109375q-1.40625 0 -2.0625 0.46875q-0.65625 0.46875 -0.65625 1.25q0 0.484375 0.265625 0.828125q0.28125 0.34375 0.71875 0.625q0.4375 0.265625 1.0 0.5q0.5625 0.21875 1.140625 0.453125q0.578125 0.234375 1.140625 0.515625q0.5625 0.28125 1.0 0.671875q0.4375 0.390625 0.703125 0.90625q0.265625 0.515625 0.265625 1.234375zm10.647919 -7.296875l-3.515625 0l0 10.515625l-1.640625 0l0 -10.515625l-3.53125 0l0 -1.390625l8.6875 0l0 1.390625zm20.123962 10.515625l-7.46875 0l0 -1.46875l3.0625 0l0 -8.703125l-2.859375 1.546875l-0.578125 -1.34375l3.78125 -1.984375l1.40625 0l0 10.484375l2.65625 0l0 1.46875z" fill-rule="nonzero"/><path fill="#000000" d="m269.9304 301.89413l-2.75 0l0 -1.359375l7.125 0l0 1.359375l-2.734375 0l0 9.15625l2.734375 0l0 1.390625l-7.125 0l0 -1.390625l2.75 0l0 -9.15625zm15.132294 10.546875l-2.125 0l-3.46875 -7.421875l-1.0 -2.390625l0 6.0l0 3.8125l-1.515625 0l0 -11.90625l2.09375 0l3.3125 7.03125l1.1875 2.71875l0 -6.375l0 -3.375l1.515625 0l0 11.90625zm10.147919 -3.21875q0 0.84375 -0.34375 1.484375q-0.34375 0.625 -0.96875 1.0625q-0.609375 0.421875 -1.484375 0.625q-0.875 0.203125 -1.921875 0.203125q-0.46875 0 -0.9375 -0.03125q-0.46875 -0.03125 -0.90625 -0.09375q-0.421875 -0.046875 -0.8125 -0.109375q-0.375 -0.078125 -0.6875 -0.171875l0 -1.5625q0.671875 0.25 1.515625 0.40625q0.859375 0.140625 1.953125 0.140625q0.78125 0 1.328125 -0.125q0.5625 -0.125 0.90625 -0.359375q0.34375 -0.25 0.5 -0.59375q0.171875 -0.34375 0.171875 -0.796875q0 -0.46875 -0.28125 -0.8125q-0.265625 -0.34375 -0.703125 -0.609375q-0.4375 -0.28125 -1.0 -0.5q-0.546875 -0.21875 -1.140625 -0.453125q-0.578125 -0.234375 -1.140625 -0.515625q-0.5625 -0.28125 -1.0 -0.65625q-0.4375 -0.375 -0.703125 -0.890625q-0.265625 -0.515625 -0.265625 -1.21875q0 -0.609375 0.25 -1.1875q0.265625 -0.59375 0.796875 -1.046875q0.53125 -0.46875 1.375 -0.75q0.84375 -0.28125 2.015625 -0.28125q0.296875 0 0.640625 0.03125q0.359375 0.015625 0.71875 0.0625q0.359375 0.046875 0.703125 0.125q0.359375 0.0625 0.65625 0.125l0 1.46875q-0.703125 -0.203125 -1.40625 -0.3125q-0.6875 -0.109375 -1.34375 -0.109375q-1.40625 0 -2.0625 0.46875q-0.65625 0.46875 -0.65625 1.25q0 0.484375 0.265625 0.828125q0.28125 0.34375 0.71875 0.625q0.4375 0.265625 1.0 0.5q0.5625 0.21875 1.140625 0.453125q0.578125 0.234375 1.140625 0.515625q0.5625 0.28125 1.0 0.671875q0.4375 0.390625 0.703125 0.90625q0.265625 0.515625 0.265625 1.234375zm10.647919 -7.296875l-3.515625 0l0 10.515625l-1.640625 0l0 -10.515625l-3.53125 0l0 -1.390625l8.6875 0l0 1.390625zm20.233337 10.515625l-7.84375 0l0 -1.421875l3.078125 -3.0625q0.75 -0.75 1.21875 -1.296875q0.484375 -0.546875 0.75 -0.984375q0.265625 -0.453125 0.34375 -0.859375q0.09375 -0.40625 0.09375 -0.859375q0 -0.4375 -0.125 -0.828125q-0.109375 -0.40625 -0.359375 -0.703125q-0.234375 -0.3125 -0.640625 -0.484375q-0.390625 -0.171875 -0.9375 -0.171875q-0.75 0 -1.375 0.34375q-0.609375 0.328125 -1.125 0.875l-0.875 -1.046875q0.671875 -0.71875 1.546875 -1.140625q0.875 -0.421875 2.046875 -0.421875q0.796875 0 1.4375 0.234375q0.65625 0.234375 1.125 0.6875q0.484375 0.4375 0.734375 1.09375q0.265625 0.640625 0.265625 1.453125q0 0.671875 -0.1875 1.265625q-0.171875 0.578125 -0.546875 1.15625q-0.375 0.578125 -0.9375 1.203125q-0.546875 0.609375 -1.3125 1.359375l-2.171875 2.09375l5.796875 0l0 1.515625z" fill-rule="nonzero"/><path fill="#000000" d="m269.9304 343.48993l-2.75 0l0 -1.359375l7.125 0l0 1.359375l-2.734375 0l0 9.15625l2.734375 0l0 1.390625l-7.125 0l0 -1.390625l2.75 0l0 -9.15625zm15.132294 10.546875l-2.125 0l-3.46875 -7.421875l-1.0 -2.390625l0 6.0l0 3.8125l-1.515625 0l0 -11.90625l2.09375 0l3.3125 7.03125l1.1875 2.71875l0 -6.375l0 -3.375l1.515625 0l0 11.90625zm10.147919 -3.21875q0 0.84375 -0.34375 1.484375q-0.34375 0.625 -0.96875 1.0625q-0.609375 0.421875 -1.484375 0.625q-0.875 0.203125 -1.921875 0.203125q-0.46875 0 -0.9375 -0.03125q-0.46875 -0.03125 -0.90625 -0.09375q-0.421875 -0.046875 -0.8125 -0.109375q-0.375 -0.078125 -0.6875 -0.171875l0 -1.5625q0.671875 0.25 1.515625 0.40625q0.859375 0.140625 1.953125 0.140625q0.78125 0 1.328125 -0.125q0.5625 -0.125 0.90625 -0.359375q0.34375 -0.25 0.5 -0.59375q0.171875 -0.34375 0.171875 -0.796875q0 -0.46875 -0.28125 -0.8125q-0.265625 -0.34375 -0.703125 -0.609375q-0.4375 -0.28125 -1.0 -0.5q-0.546875 -0.21875 -1.140625 -0.453125q-0.578125 -0.234375 -1.140625 -0.515625q-0.5625 -0.28125 -1.0 -0.65625q-0.4375 -0.375 -0.703125 -0.890625q-0.265625 -0.515625 -0.265625 -1.21875q0 -0.609375 0.25 -1.1875q0.265625 -0.59375 0.796875 -1.046875q0.53125 -0.46875 1.375 -0.75q0.84375 -0.28125 2.015625 -0.28125q0.296875 0 0.640625 0.03125q0.359375 0.015625 0.71875 0.0625q0.359375 0.046875 0.703125 0.125q0.359375 0.0625 0.65625 0.125l0 1.46875q-0.703125 -0.203125 -1.40625 -0.3125q-0.6875 -0.109375 -1.34375 -0.109375q-1.40625 0 -2.0625 0.46875q-0.65625 0.46875 -0.65625 1.25q0 0.484375 0.265625 0.828125q0.28125 0.34375 0.71875 0.625q0.4375 0.265625 1.0 0.5q0.5625 0.21875 1.140625 0.453125q0.578125 0.234375 1.140625 0.515625q0.5625 0.28125 1.0 0.671875q0.4375 0.390625 0.703125 0.90625q0.265625 0.515625 0.265625 1.234375zm10.647919 -7.296875l-3.515625 0l0 10.515625l-1.640625 0l0 -10.515625l-3.53125 0l0 -1.390625l8.6875 0l0 1.390625zm19.998962 6.90625q0 0.78125 -0.328125 1.46875q-0.3125 0.6875 -0.953125 1.203125q-0.625 0.515625 -1.59375 0.8125q-0.96875 0.28125 -2.25 0.28125q-0.71875 0 -1.28125 -0.046875q-0.5625 -0.03125 -1.046875 -0.109375l0 -1.421875q0.5625 0.09375 1.1875 0.15625q0.625 0.046875 1.28125 0.046875q0.890625 0 1.515625 -0.15625q0.640625 -0.15625 1.046875 -0.453125q0.40625 -0.296875 0.578125 -0.71875q0.1875 -0.4375 0.1875 -0.984375q0 -0.484375 -0.21875 -0.84375q-0.21875 -0.375 -0.625 -0.609375q-0.390625 -0.25 -0.9375 -0.375q-0.546875 -0.125 -1.203125 -0.125l-1.359375 0l0 -1.296875l1.375 0q0.53125 0 0.96875 -0.140625q0.453125 -0.140625 0.765625 -0.40625q0.3125 -0.265625 0.484375 -0.65625q0.171875 -0.390625 0.171875 -0.875q0 -0.953125 -0.59375 -1.390625q-0.578125 -0.4375 -1.703125 -0.4375q-0.609375 0 -1.25 0.125q-0.625 0.109375 -1.359375 0.34375l0 -1.390625q0.3125 -0.109375 0.65625 -0.1875q0.359375 -0.09375 0.703125 -0.140625q0.359375 -0.0625 0.703125 -0.09375q0.34375 -0.03125 0.65625 -0.03125q0.953125 0 1.671875 0.203125q0.71875 0.203125 1.203125 0.59375q0.484375 0.375 0.71875 0.921875q0.25 0.546875 0.25 1.21875q0 1.03125 -0.53125 1.71875q-0.515625 0.6875 -1.421875 1.109375q0.46875 0.0625 0.90625 0.28125q0.453125 0.21875 0.8125 0.5625q0.375 0.34375 0.59375 0.8125q0.21875 0.453125 0.21875 1.03125z" fill-rule="nonzero"/><path stroke="#9e9e9e" stroke-width="1.0" stroke-linecap="butt" d="m579.94354 209.82808l0 192.98164" fill-rule="nonzero"/><path stroke="#9e9e9e" stroke-width="1.0" stroke-linecap="butt" d="m737.4659 209.82808l0 192.98164" fill-rule="nonzero"/><path stroke="#9e9e9e" stroke-width="1.0" stroke-linecap="butt" d="m579.4449 210.32677l158.51965 0" fill-rule="nonzero"/><path stroke="#9e9e9e" stroke-width="1.0" stroke-linecap="butt" d="m579.4449 274.32153l158.51965 0" fill-rule="nonzero"/><path stroke="#9e9e9e" stroke-width="1.0" stroke-linecap="butt" d="m579.4449 338.31628l158.51965 0" fill-rule="nonzero"/><path stroke="#9e9e9e" stroke-width="1.0" stroke-linecap="butt" d="m579.4449 402.31104l158.51965 0" fill-rule="nonzero"/><path fill="#000000" d="m632.24536 226.69989l-2.75 0l0 -1.359375l7.125 0l0 1.359375l-2.734375 0l0 9.15625l2.734375 0l0 1.390625l-7.125 0l0 -1.390625l2.75 0l0 -9.15625zm15.132263 10.546875l-2.125 0l-3.46875 -7.421875l-1.0 -2.390625l0 6.0l0 3.8125l-1.515625 0l0 -11.90625l2.09375 0l3.3125 7.03125l1.1875 2.71875l0 -6.375l0 -3.375l1.515625 0l0 11.90625zm10.147949 -3.21875q0 0.84375 -0.34375 1.484375q-0.34375 0.625 -0.96875 1.0625q-0.609375 0.421875 -1.484375 0.625q-0.875 0.203125 -1.921875 0.203125q-0.46875 0 -0.9375 -0.03125q-0.46875 -0.03125 -0.90625 -0.09375q-0.421875 -0.046875 -0.8125 -0.109375q-0.375 -0.078125 -0.6875 -0.171875l0 -1.5625q0.671875 0.25 1.515625 0.40625q0.859375 0.140625 1.953125 0.140625q0.78125 0 1.328125 -0.125q0.5625 -0.125 0.90625 -0.359375q0.34375 -0.25 0.5 -0.59375q0.171875 -0.34375 0.171875 -0.796875q0 -0.46875 -0.28125 -0.8125q-0.265625 -0.34375 -0.703125 -0.609375q-0.4375 -0.28125 -1.0 -0.5q-0.546875 -0.21875 -1.140625 -0.453125q-0.578125 -0.234375 -1.140625 -0.515625q-0.5625 -0.28125 -1.0 -0.65625q-0.4375 -0.375 -0.703125 -0.890625q-0.265625 -0.515625 -0.265625 -1.21875q0 -0.609375 0.25 -1.1875q0.265625 -0.59375 0.796875 -1.046875q0.53125 -0.46875 1.375 -0.75q0.84375 -0.28125 2.015625 -0.28125q0.296875 0 0.640625 0.03125q0.359375 0.015625 0.71875 0.0625q0.359375 0.046875 0.703125 0.125q0.359375 0.0625 0.65625 0.125l0 1.46875q-0.703125 -0.203125 -1.40625 -0.3125q-0.6875 -0.109375 -1.34375 -0.109375q-1.40625 0 -2.0625 0.46875q-0.65625 0.46875 -0.65625 1.25q0 0.484375 0.265625 0.828125q0.28125 0.34375 0.71875 0.625q0.4375 0.265625 1.0 0.5q0.5625 0.21875 1.140625 0.453125q0.578125 0.234375 1.140625 0.515625q0.5625 0.28125 1.0 0.671875q0.4375 0.390625 0.703125 0.90625q0.265625 0.515625 0.265625 1.234375zm10.647888 -7.296875l-3.515625 0l0 10.515625l-1.640625 0l0 -10.515625l-3.53125 0l0 -1.390625l8.6875 0l0 1.390625zm20.123962 10.515625l-7.46875 0l0 -1.46875l3.0625 0l0 -8.703125l-2.859375 1.546875l-0.578125 -1.34375l3.78125 -1.984375l1.40625 0l0 10.484375l2.65625 0l0 1.46875z" fill-rule="nonzero"/><path fill="#ff0000" d="m611.86774 259.64676l-1.828125 0l-1.78125 -3.8124847q-0.203125 -0.4375 -0.421875 -0.71875q-0.203125 -0.28125 -0.453125 -0.453125q-0.234375 -0.171875 -0.515625 -0.234375q-0.28125 -0.078125 -0.640625 -0.078125l-0.765625 0l0 5.2968597l-1.625 0l0 -11.906235l3.1875 0q1.046875 0 1.78125 0.234375q0.75 0.21875 1.21875 0.640625q0.484375 0.40625 0.703125 0.984375q0.234375 0.578125 0.234375 1.28125q0 0.546875 -0.171875 1.046875q-0.15625 0.5 -0.484375 0.90625q-0.3125 0.40625 -0.796875 0.703125q-0.484375 0.28125 -1.09375 0.4375q0.5 0.171875 0.84375 0.609375q0.359375 0.421875 0.71875 1.140625l1.890625 3.9218597zm-2.59375 -8.64061q0 -0.953125 -0.609375 -1.421875q-0.59375 -0.484375 -1.671875 -0.484375l-1.53125 0l0 3.9375l1.3125 0q0.578125 0 1.03125 -0.125q0.453125 -0.140625 0.78125 -0.390625q0.328125 -0.265625 0.5 -0.640625q0.1875 -0.375 0.1875 -0.875zm11.866638 8.64061l-6.765625 0l0 -11.906235l6.765625 0l0 1.359375l-5.140625 0l0 3.703125l4.953125 0l0 1.359375l-4.953125 0l0 4.0937347l5.140625 0l0 1.390625zm10.726074 -0.453125q-1.421875 0.59375 -3.0 0.59375q-2.515625 0 -3.875 -1.5q-1.34375 -1.515625 -1.34375 -4.4687347q0 -1.421875 0.359375 -2.578125q0.375 -1.15625 1.0625 -1.953125q0.703125 -0.8125 1.6875 -1.25q0.984375 -0.4375 2.203125 -0.4375q0.828125 0 1.53125 0.140625q0.71875 0.140625 1.375 0.421875l0 1.59375q-0.640625 -0.34375 -1.34375 -0.53125q-0.6875 -0.1875 -1.5 -0.1875q-0.84375 0 -1.53125 0.3125q-0.671875 0.3125 -1.15625 0.90625q-0.46875 0.59375 -0.71875 1.46875q-0.25 0.859375 -0.25 1.953125q0 2.3125 0.9375 3.4999847q0.9375 1.171875 2.75 1.171875q0.765625 0 1.46875 -0.171875q0.703125 -0.1875 1.34375 -0.515625l0 1.53125zm10.944763 -5.5781097q0 1.609375 -0.375 2.7812347q-0.375 1.15625 -1.015625 1.921875q-0.640625 0.75 -1.5 1.125q-0.859375 0.359375 -1.828125 0.359375q-1.140625 0 -2.0 -0.40625q-0.84375 -0.421875 -1.40625 -1.203125q-0.5625 -0.78125 -0.84375 -1.90625q-0.265625 -1.1249847 -0.265625 -2.5312347q0 -1.59375 0.375 -2.75q0.375 -1.171875 1.015625 -1.921875q0.640625 -0.765625 1.5 -1.125q0.859375 -0.375 1.8125 -0.375q1.15625 0 2.0 0.421875q0.859375 0.40625 1.421875 1.1875q0.5625 0.78125 0.828125 1.90625q0.28125 1.109375 0.28125 2.515625zm-1.671875 0.125q0 -1.046875 -0.171875 -1.921875q-0.15625 -0.875 -0.515625 -1.5q-0.34375 -0.625 -0.90625 -0.96875q-0.5625 -0.359375 -1.359375 -0.359375q-0.765625 0 -1.3125 0.375q-0.546875 0.375 -0.90625 1.015625q-0.359375 0.625 -0.53125 1.484375q-0.171875 0.84375 -0.171875 1.796875q0 1.0625 0.15625 1.9375q0.171875 0.85935974 0.515625 1.4843597q0.359375 0.625 0.90625 0.96875q0.5625 0.34375 1.34375 0.34375q0.765625 0 1.3125 -0.359375q0.5625 -0.375 0.921875 -1.0q0.359375 -0.640625 0.53125 -1.4843597q0.1875 -0.859375 0.1875 -1.8125zm11.757324 5.9062347l-1.828125 0l-1.78125 -3.8124847q-0.203125 -0.4375 -0.421875 -0.71875q-0.203125 -0.28125 -0.453125 -0.453125q-0.234375 -0.171875 -0.515625 -0.234375q-0.28125 -0.078125 -0.640625 -0.078125l-0.765625 0l0 5.2968597l-1.625 0l0 -11.906235l3.1875 0q1.046875 0 1.78125 0.234375q0.75 0.21875 1.21875 0.640625q0.484375 0.40625 0.703125 0.984375q0.234375 0.578125 0.234375 1.28125q0 0.546875 -0.171875 1.046875q-0.15625 0.5 -0.484375 0.90625q-0.3125 0.40625 -0.796875 0.703125q-0.484375 0.28125 -1.09375 0.4375q0.5 0.171875 0.84375 0.609375q0.359375 0.421875 0.71875 1.140625l1.890625 3.9218597zm-2.59375 -8.64061q0 -0.953125 -0.609375 -1.421875q-0.59375 -0.484375 -1.671875 -0.484375l-1.53125 0l0 3.9375l1.3125 0q0.578125 0 1.03125 -0.125q0.453125 -0.140625 0.78125 -0.390625q0.328125 -0.265625 0.5 -0.640625q0.1875 -0.375 0.1875 -0.875zm12.866638 2.5625q0 0.84375 -0.140625 1.640625q-0.125 0.78125 -0.421875 1.4531097q-0.28125 0.671875 -0.75 1.21875q-0.46875 0.546875 -1.140625 0.953125q-0.671875 0.390625 -1.5625 0.609375q-0.890625 0.203125 -2.03125 0.203125l-2.546875 0l0 -11.906235l3.0625 0q2.78125 0 4.15625 1.4375q1.375 1.4375 1.375 4.390625zm-1.703125 0.109375q0 -1.265625 -0.234375 -2.140625q-0.234375 -0.875 -0.71875 -1.40625q-0.484375 -0.546875 -1.21875 -0.78125q-0.734375 -0.25 -1.703125 -0.25l-1.40625 0l0 9.14061l1.21875 0q4.0625 0 4.0625 -4.5624847zm12.616699 9.70311l-10.25 0l0 -1.3125l10.25 0l0 1.3125zm4.319763 -14.281235l-2.75 0l0 -1.359375l7.125 0l0 1.359375l-2.734375 0l0 9.156235l2.734375 0l0 1.390625l-7.125 0l0 -1.390625l2.75 0l0 -9.156235zm15.132324 10.54686l-2.125 0l-3.46875 -7.4218597l-1.0 -2.390625l0 6.0l0 3.8124847l-1.515625 0l0 -11.906235l2.09375 0l3.3125 7.03125l1.1875 2.7187347l0 -6.3749847l0 -3.375l1.515625 0l0 11.906235zm10.147888 -3.21875q0 0.84375 -0.34375 1.484375q-0.34375 0.625 -0.96875 1.0625q-0.609375 0.421875 -1.484375 0.625q-0.875 0.203125 -1.921875 0.203125q-0.46875 0 -0.9375 -0.03125q-0.46875 -0.03125 -0.90625 -0.09375q-0.421875 -0.046875 -0.8125 -0.109375q-0.375 -0.078125 -0.6875 -0.171875l0 -1.5625q0.671875 0.25 1.515625 0.40625q0.859375 0.140625 1.953125 0.140625q0.78125 0 1.328125 -0.125q0.5625 -0.125 0.90625 -0.359375q0.34375 -0.25 0.5 -0.59375q0.171875 -0.34375 0.171875 -0.796875q0 -0.46875 -0.28125 -0.81248474q-0.265625 -0.34375 -0.703125 -0.609375q-0.4375 -0.28125 -1.0 -0.5q-0.546875 -0.21875 -1.140625 -0.453125q-0.578125 -0.234375 -1.140625 -0.515625q-0.5625 -0.28125 -1.0 -0.65625q-0.4375 -0.375 -0.703125 -0.890625q-0.265625 -0.515625 -0.265625 -1.21875q0 -0.609375 0.25 -1.1875q0.265625 -0.59375 0.796875 -1.046875q0.53125 -0.46875 1.375 -0.75q0.84375 -0.28125 2.015625 -0.28125q0.296875 0 0.640625 0.03125q0.359375 0.015625 0.71875 0.0625q0.359375 0.046875 0.703125 0.125q0.359375 0.0625 0.65625 0.125l0 1.46875q-0.703125 -0.203125 -1.40625 -0.3125q-0.6875 -0.109375 -1.34375 -0.109375q-1.40625 0 -2.0625 0.46875q-0.65625 0.46875 -0.65625 1.25q0 0.484375 0.265625 0.828125q0.28125 0.34375 0.71875 0.625q0.4375 0.265625 1.0 0.5q0.5625 0.21875 1.140625 0.453125q0.578125 0.234375 1.140625 0.515625q0.5625 0.28125 1.0 0.671875q0.4375 0.390625 0.703125 0.90625q0.265625 0.515625 0.265625 1.2343597zm10.647949 -7.2968597l-3.515625 0l0 10.51561l-1.640625 0l0 -10.51561l-3.53125 0l0 -1.390625l8.6875 0l0 1.390625z" fill-rule="nonzero"/><path fill="#000000" d="m632.24536 290.69464l-2.75 0l0 -1.359375l7.125 0l0 1.359375l-2.734375 0l0 9.15625l2.734375 0l0 1.390625l-7.125 0l0 -1.390625l2.75 0l0 -9.15625zm15.132263 10.546875l-2.125 0l-3.46875 -7.421875l-1.0 -2.390625l0 6.0l0 3.8125l-1.515625 0l0 -11.90625l2.09375 0l3.3125 7.03125l1.1875 2.71875l0 -6.375l0 -3.375l1.515625 0l0 11.90625zm10.147949 -3.21875q0 0.84375 -0.34375 1.484375q-0.34375 0.625 -0.96875 1.0625q-0.609375 0.421875 -1.484375 0.625q-0.875 0.203125 -1.921875 0.203125q-0.46875 0 -0.9375 -0.03125q-0.46875 -0.03125 -0.90625 -0.09375q-0.421875 -0.046875 -0.8125 -0.109375q-0.375 -0.078125 -0.6875 -0.171875l0 -1.5625q0.671875 0.25 1.515625 0.40625q0.859375 0.140625 1.953125 0.140625q0.78125 0 1.328125 -0.125q0.5625 -0.125 0.90625 -0.359375q0.34375 -0.25 0.5 -0.59375q0.171875 -0.34375 0.171875 -0.796875q0 -0.46875 -0.28125 -0.8125q-0.265625 -0.34375 -0.703125 -0.609375q-0.4375 -0.28125 -1.0 -0.5q-0.546875 -0.21875 -1.140625 -0.453125q-0.578125 -0.234375 -1.140625 -0.515625q-0.5625 -0.28125 -1.0 -0.65625q-0.4375 -0.375 -0.703125 -0.890625q-0.265625 -0.515625 -0.265625 -1.21875q0 -0.609375 0.25 -1.1875q0.265625 -0.59375 0.796875 -1.046875q0.53125 -0.46875 1.375 -0.75q0.84375 -0.28125 2.015625 -0.28125q0.296875 0 0.640625 0.03125q0.359375 0.015625 0.71875 0.0625q0.359375 0.046875 0.703125 0.125q0.359375 0.0625 0.65625 0.125l0 1.46875q-0.703125 -0.203125 -1.40625 -0.3125q-0.6875 -0.109375 -1.34375 -0.109375q-1.40625 0 -2.0625 0.46875q-0.65625 0.46875 -0.65625 1.25q0 0.484375 0.265625 0.828125q0.28125 0.34375 0.71875 0.625q0.4375 0.265625 1.0 0.5q0.5625 0.21875 1.140625 0.453125q0.578125 0.234375 1.140625 0.515625q0.5625 0.28125 1.0 0.671875q0.4375 0.390625 0.703125 0.90625q0.265625 0.515625 0.265625 1.234375zm10.647888 -7.296875l-3.515625 0l0 10.515625l-1.640625 0l0 -10.515625l-3.53125 0l0 -1.390625l8.6875 0l0 1.390625zm20.233337 10.515625l-7.84375 0l0 -1.421875l3.078125 -3.0625q0.75 -0.75 1.21875 -1.296875q0.484375 -0.546875 0.75 -0.984375q0.265625 -0.453125 0.34375 -0.859375q0.09375 -0.40625 0.09375 -0.859375q0 -0.4375 -0.125 -0.828125q-0.109375 -0.40625 -0.359375 -0.703125q-0.234375 -0.3125 -0.640625 -0.484375q-0.390625 -0.171875 -0.9375 -0.171875q-0.75 0 -1.375 0.34375q-0.609375 0.328125 -1.125 0.875l-0.875 -1.046875q0.671875 -0.71875 1.546875 -1.140625q0.875 -0.421875 2.046875 -0.421875q0.796875 0 1.4375 0.234375q0.65625 0.234375 1.125 0.6875q0.484375 0.4375 0.734375 1.09375q0.265625 0.640625 0.265625 1.453125q0 0.671875 -0.1875 1.265625q-0.171875 0.578125 -0.546875 1.15625q-0.375 0.578125 -0.9375 1.203125q-0.546875 0.609375 -1.3125 1.359375l-2.171875 2.09375l5.796875 0l0 1.515625z" fill-rule="nonzero"/><path fill="#ff0000" d="m611.86774 323.6415l-1.828125 0l-1.78125 -3.8125q-0.203125 -0.4375 -0.421875 -0.71875q-0.203125 -0.28125 -0.453125 -0.453125q-0.234375 -0.171875 -0.515625 -0.234375q-0.28125 -0.078125 -0.640625 -0.078125l-0.765625 0l0 5.296875l-1.625 0l0 -11.90625l3.1875 0q1.046875 0 1.78125 0.234375q0.75 0.21875 1.21875 0.640625q0.484375 0.40625 0.703125 0.984375q0.234375 0.578125 0.234375 1.28125q0 0.546875 -0.171875 1.046875q-0.15625 0.5 -0.484375 0.90625q-0.3125 0.40625 -0.796875 0.703125q-0.484375 0.28125 -1.09375 0.4375q0.5 0.171875 0.84375 0.609375q0.359375 0.421875 0.71875 1.140625l1.890625 3.921875zm-2.59375 -8.640625q0 -0.953125 -0.609375 -1.421875q-0.59375 -0.484375 -1.671875 -0.484375l-1.53125 0l0 3.9375l1.3125 0q0.578125 0 1.03125 -0.125q0.453125 -0.140625 0.78125 -0.390625q0.328125 -0.265625 0.5 -0.640625q0.1875 -0.375 0.1875 -0.875zm11.866638 8.640625l-6.765625 0l0 -11.90625l6.765625 0l0 1.359375l-5.140625 0l0 3.703125l4.953125 0l0 1.359375l-4.953125 0l0 4.09375l5.140625 0l0 1.390625zm10.726074 -0.453125q-1.421875 0.59375 -3.0 0.59375q-2.515625 0 -3.875 -1.5q-1.34375 -1.515625 -1.34375 -4.46875q0 -1.421875 0.359375 -2.578125q0.375 -1.15625 1.0625 -1.953125q0.703125 -0.8125 1.6875 -1.25q0.984375 -0.4375 2.203125 -0.4375q0.828125 0 1.53125 0.140625q0.71875 0.140625 1.375 0.421875l0 1.59375q-0.640625 -0.34375 -1.34375 -0.53125q-0.6875 -0.1875 -1.5 -0.1875q-0.84375 0 -1.53125 0.3125q-0.671875 0.3125 -1.15625 0.90625q-0.46875 0.59375 -0.71875 1.46875q-0.25 0.859375 -0.25 1.953125q0 2.3125 0.9375 3.5q0.9375 1.171875 2.75 1.171875q0.765625 0 1.46875 -0.171875q0.703125 -0.1875 1.34375 -0.515625l0 1.53125zm10.944763 -5.578125q0 1.609375 -0.375 2.78125q-0.375 1.15625 -1.015625 1.921875q-0.640625 0.75 -1.5 1.125q-0.859375 0.359375 -1.828125 0.359375q-1.140625 0 -2.0 -0.40625q-0.84375 -0.421875 -1.40625 -1.203125q-0.5625 -0.78125 -0.84375 -1.90625q-0.265625 -1.125 -0.265625 -2.53125q0 -1.59375 0.375 -2.75q0.375 -1.171875 1.015625 -1.921875q0.640625 -0.765625 1.5 -1.125q0.859375 -0.375 1.8125 -0.375q1.15625 0 2.0 0.421875q0.859375 0.40625 1.421875 1.1875q0.5625 0.78125 0.828125 1.90625q0.28125 1.109375 0.28125 2.515625zm-1.671875 0.125q0 -1.046875 -0.171875 -1.921875q-0.15625 -0.875 -0.515625 -1.5q-0.34375 -0.625 -0.90625 -0.96875q-0.5625 -0.359375 -1.359375 -0.359375q-0.765625 0 -1.3125 0.375q-0.546875 0.375 -0.90625 1.015625q-0.359375 0.625 -0.53125 1.484375q-0.171875 0.84375 -0.171875 1.796875q0 1.0625 0.15625 1.9375q0.171875 0.859375 0.515625 1.484375q0.359375 0.625 0.90625 0.96875q0.5625 0.34375 1.34375 0.34375q0.765625 0 1.3125 -0.359375q0.5625 -0.375 0.921875 -1.0q0.359375 -0.640625 0.53125 -1.484375q0.1875 -0.859375 0.1875 -1.8125zm11.757324 5.90625l-1.828125 0l-1.78125 -3.8125q-0.203125 -0.4375 -0.421875 -0.71875q-0.203125 -0.28125 -0.453125 -0.453125q-0.234375 -0.171875 -0.515625 -0.234375q-0.28125 -0.078125 -0.640625 -0.078125l-0.765625 0l0 5.296875l-1.625 0l0 -11.90625l3.1875 0q1.046875 0 1.78125 0.234375q0.75 0.21875 1.21875 0.640625q0.484375 0.40625 0.703125 0.984375q0.234375 0.578125 0.234375 1.28125q0 0.546875 -0.171875 1.046875q-0.15625 0.5 -0.484375 0.90625q-0.3125 0.40625 -0.796875 0.703125q-0.484375 0.28125 -1.09375 0.4375q0.5 0.171875 0.84375 0.609375q0.359375 0.421875 0.71875 1.140625l1.890625 3.921875zm-2.59375 -8.640625q0 -0.953125 -0.609375 -1.421875q-0.59375 -0.484375 -1.671875 -0.484375l-1.53125 0l0 3.9375l1.3125 0q0.578125 0 1.03125 -0.125q0.453125 -0.140625 0.78125 -0.390625q0.328125 -0.265625 0.5 -0.640625q0.1875 -0.375 0.1875 -0.875zm12.866638 2.5625q0 0.84375 -0.140625 1.640625q-0.125 0.78125 -0.421875 1.453125q-0.28125 0.671875 -0.75 1.21875q-0.46875 0.546875 -1.140625 0.953125q-0.671875 0.390625 -1.5625 0.609375q-0.890625 0.203125 -2.03125 0.203125l-2.546875 0l0 -11.90625l3.0625 0q2.78125 0 4.15625 1.4375q1.375 1.4375 1.375 4.390625zm-1.703125 0.109375q0 -1.265625 -0.234375 -2.140625q-0.234375 -0.875 -0.71875 -1.40625q-0.484375 -0.546875 -1.21875 -0.78125q-0.734375 -0.25 -1.703125 -0.25l-1.40625 0l0 9.140625l1.21875 0q4.0625 0 4.0625 -4.5625zm12.616699 9.703125l-10.25 0l0 -1.3125l10.25 0l0 1.3125zm4.319763 -14.28125l-2.75 0l0 -1.359375l7.125 0l0 1.359375l-2.734375 0l0 9.15625l2.734375 0l0 1.390625l-7.125 0l0 -1.390625l2.75 0l0 -9.15625zm15.132324 10.546875l-2.125 0l-3.46875 -7.421875l-1.0 -2.390625l0 6.0l0 3.8125l-1.515625 0l0 -11.90625l2.09375 0l3.3125 7.03125l1.1875 2.71875l0 -6.375l0 -3.375l1.515625 0l0 11.90625zm10.147888 -3.21875q0 0.84375 -0.34375 1.484375q-0.34375 0.625 -0.96875 1.0625q-0.609375 0.421875 -1.484375 0.625q-0.875 0.203125 -1.921875 0.203125q-0.46875 0 -0.9375 -0.03125q-0.46875 -0.03125 -0.90625 -0.09375q-0.421875 -0.046875 -0.8125 -0.109375q-0.375 -0.078125 -0.6875 -0.171875l0 -1.5625q0.671875 0.25 1.515625 0.40625q0.859375 0.140625 1.953125 0.140625q0.78125 0 1.328125 -0.125q0.5625 -0.125 0.90625 -0.359375q0.34375 -0.25 0.5 -0.59375q0.171875 -0.34375 0.171875 -0.796875q0 -0.46875 -0.28125 -0.8125q-0.265625 -0.34375 -0.703125 -0.609375q-0.4375 -0.28125 -1.0 -0.5q-0.546875 -0.21875 -1.140625 -0.453125q-0.578125 -0.234375 -1.140625 -0.515625q-0.5625 -0.28125 -1.0 -0.65625q-0.4375 -0.375 -0.703125 -0.890625q-0.265625 -0.515625 -0.265625 -1.21875q0 -0.609375 0.25 -1.1875q0.265625 -0.59375 0.796875 -1.046875q0.53125 -0.46875 1.375 -0.75q0.84375 -0.28125 2.015625 -0.28125q0.296875 0 0.640625 0.03125q0.359375 0.015625 0.71875 0.0625q0.359375 0.046875 0.703125 0.125q0.359375 0.0625 0.65625 0.125l0 1.46875q-0.703125 -0.203125 -1.40625 -0.3125q-0.6875 -0.109375 -1.34375 -0.109375q-1.40625 0 -2.0625 0.46875q-0.65625 0.46875 -0.65625 1.25q0 0.484375 0.265625 0.828125q0.28125 0.34375 0.71875 0.625q0.4375 0.265625 1.0 0.5q0.5625 0.21875 1.140625 0.453125q0.578125 0.234375 1.140625 0.515625q0.5625 0.28125 1.0 0.671875q0.4375 0.390625 0.703125 0.90625q0.265625 0.515625 0.265625 1.234375zm10.647949 -7.296875l-3.515625 0l0 10.515625l-1.640625 0l0 -10.515625l-3.53125 0l0 -1.390625l8.6875 0l0 1.390625z" fill-rule="nonzero"/><path fill="#000000" d="m632.24536 354.6894l-2.75 0l0 -1.359375l7.125 0l0 1.359375l-2.734375 0l0 9.15625l2.734375 0l0 1.390625l-7.125 0l0 -1.390625l2.75 0l0 -9.15625zm15.132263 10.546875l-2.125 0l-3.46875 -7.421875l-1.0 -2.390625l0 6.0l0 3.8125l-1.515625 0l0 -11.90625l2.09375 0l3.3125 7.03125l1.1875 2.71875l0 -6.375l0 -3.375l1.515625 0l0 11.90625zm10.147949 -3.21875q0 0.84375 -0.34375 1.484375q-0.34375 0.625 -0.96875 1.0625q-0.609375 0.421875 -1.484375 0.625q-0.875 0.203125 -1.921875 0.203125q-0.46875 0 -0.9375 -0.03125q-0.46875 -0.03125 -0.90625 -0.09375q-0.421875 -0.046875 -0.8125 -0.109375q-0.375 -0.078125 -0.6875 -0.171875l0 -1.5625q0.671875 0.25 1.515625 0.40625q0.859375 0.140625 1.953125 0.140625q0.78125 0 1.328125 -0.125q0.5625 -0.125 0.90625 -0.359375q0.34375 -0.25 0.5 -0.59375q0.171875 -0.34375 0.171875 -0.796875q0 -0.46875 -0.28125 -0.8125q-0.265625 -0.34375 -0.703125 -0.609375q-0.4375 -0.28125 -1.0 -0.5q-0.546875 -0.21875 -1.140625 -0.453125q-0.578125 -0.234375 -1.140625 -0.515625q-0.5625 -0.28125 -1.0 -0.65625q-0.4375 -0.375 -0.703125 -0.890625q-0.265625 -0.515625 -0.265625 -1.21875q0 -0.609375 0.25 -1.1875q0.265625 -0.59375 0.796875 -1.046875q0.53125 -0.46875 1.375 -0.75q0.84375 -0.28125 2.015625 -0.28125q0.296875 0 0.640625 0.03125q0.359375 0.015625 0.71875 0.0625q0.359375 0.046875 0.703125 0.125q0.359375 0.0625 0.65625 0.125l0 1.46875q-0.703125 -0.203125 -1.40625 -0.3125q-0.6875 -0.109375 -1.34375 -0.109375q-1.40625 0 -2.0625 0.46875q-0.65625 0.46875 -0.65625 1.25q0 0.484375 0.265625 0.828125q0.28125 0.34375 0.71875 0.625q0.4375 0.265625 1.0 0.5q0.5625 0.21875 1.140625 0.453125q0.578125 0.234375 1.140625 0.515625q0.5625 0.28125 1.0 0.671875q0.4375 0.390625 0.703125 0.90625q0.265625 0.515625 0.265625 1.234375zm10.647888 -7.296875l-3.515625 0l0 10.515625l-1.640625 0l0 -10.515625l-3.53125 0l0 -1.390625l8.6875 0l0 1.390625zm19.998962 6.90625q0 0.78125 -0.328125 1.46875q-0.3125 0.6875 -0.953125 1.203125q-0.625 0.515625 -1.59375 0.8125q-0.96875 0.28125 -2.25 0.28125q-0.71875 0 -1.28125 -0.046875q-0.5625 -0.03125 -1.046875 -0.109375l0 -1.421875q0.5625 0.09375 1.1875 0.15625q0.625 0.046875 1.28125 0.046875q0.890625 0 1.515625 -0.15625q0.640625 -0.15625 1.046875 -0.453125q0.40625 -0.296875 0.578125 -0.71875q0.1875 -0.4375 0.1875 -0.984375q0 -0.484375 -0.21875 -0.84375q-0.21875 -0.375 -0.625 -0.609375q-0.390625 -0.25 -0.9375 -0.375q-0.546875 -0.125 -1.203125 -0.125l-1.359375 0l0 -1.296875l1.375 0q0.53125 0 0.96875 -0.140625q0.453125 -0.140625 0.765625 -0.40625q0.3125 -0.265625 0.484375 -0.65625q0.171875 -0.390625 0.171875 -0.875q0 -0.953125 -0.59375 -1.390625q-0.578125 -0.4375 -1.703125 -0.4375q-0.609375 0 -1.25 0.125q-0.625 0.109375 -1.359375 0.34375l0 -1.390625q0.3125 -0.109375 0.65625 -0.1875q0.359375 -0.09375 0.703125 -0.140625q0.359375 -0.0625 0.703125 -0.09375q0.34375 -0.03125 0.65625 -0.03125q0.953125 0 1.671875 0.203125q0.71875 0.203125 1.203125 0.59375q0.484375 0.375 0.71875 0.921875q0.25 0.546875 0.25 1.21875q0 1.03125 -0.53125 1.71875q-0.515625 0.6875 -1.421875 1.109375q0.46875 0.0625 0.90625 0.28125q0.453125 0.21875 0.8125 0.5625q0.375 0.34375 0.59375 0.8125q0.21875 0.453125 0.21875 1.03125z" fill-rule="nonzero"/><path fill="#ff0000" d="m611.86774 387.63626l-1.828125 0l-1.78125 -3.8125q-0.203125 -0.4375 -0.421875 -0.71875q-0.203125 -0.28125 -0.453125 -0.453125q-0.234375 -0.171875 -0.515625 -0.234375q-0.28125 -0.078125 -0.640625 -0.078125l-0.765625 0l0 5.296875l-1.625 0l0 -11.90625l3.1875 0q1.046875 0 1.78125 0.234375q0.75 0.21875 1.21875 0.640625q0.484375 0.40625 0.703125 0.984375q0.234375 0.578125 0.234375 1.28125q0 0.546875 -0.171875 1.046875q-0.15625 0.5 -0.484375 0.90625q-0.3125 0.40625 -0.796875 0.703125q-0.484375 0.28125 -1.09375 0.4375q0.5 0.171875 0.84375 0.609375q0.359375 0.421875 0.71875 1.140625l1.890625 3.921875zm-2.59375 -8.640625q0 -0.953125 -0.609375 -1.421875q-0.59375 -0.484375 -1.671875 -0.484375l-1.53125 0l0 3.9375l1.3125 0q0.578125 0 1.03125 -0.125q0.453125 -0.140625 0.78125 -0.390625q0.328125 -0.265625 0.5 -0.640625q0.1875 -0.375 0.1875 -0.875zm11.866638 8.640625l-6.765625 0l0 -11.90625l6.765625 0l0 1.359375l-5.140625 0l0 3.703125l4.953125 0l0 1.359375l-4.953125 0l0 4.09375l5.140625 0l0 1.390625zm10.726074 -0.453125q-1.421875 0.59375 -3.0 0.59375q-2.515625 0 -3.875 -1.5q-1.34375 -1.515625 -1.34375 -4.46875q0 -1.421875 0.359375 -2.578125q0.375 -1.15625 1.0625 -1.953125q0.703125 -0.8125 1.6875 -1.25q0.984375 -0.4375 2.203125 -0.4375q0.828125 0 1.53125 0.140625q0.71875 0.140625 1.375 0.421875l0 1.59375q-0.640625 -0.34375 -1.34375 -0.53125q-0.6875 -0.1875 -1.5 -0.1875q-0.84375 0 -1.53125 0.3125q-0.671875 0.3125 -1.15625 0.90625q-0.46875 0.59375 -0.71875 1.46875q-0.25 0.859375 -0.25 1.953125q0 2.3125 0.9375 3.5q0.9375 1.171875 2.75 1.171875q0.765625 0 1.46875 -0.171875q0.703125 -0.1875 1.34375 -0.515625l0 1.53125zm10.944763 -5.578125q0 1.609375 -0.375 2.78125q-0.375 1.15625 -1.015625 1.921875q-0.640625 0.75 -1.5 1.125q-0.859375 0.359375 -1.828125 0.359375q-1.140625 0 -2.0 -0.40625q-0.84375 -0.421875 -1.40625 -1.203125q-0.5625 -0.78125 -0.84375 -1.90625q-0.265625 -1.125 -0.265625 -2.53125q0 -1.59375 0.375 -2.75q0.375 -1.171875 1.015625 -1.921875q0.640625 -0.765625 1.5 -1.125q0.859375 -0.375 1.8125 -0.375q1.15625 0 2.0 0.421875q0.859375 0.40625 1.421875 1.1875q0.5625 0.78125 0.828125 1.90625q0.28125 1.109375 0.28125 2.515625zm-1.671875 0.125q0 -1.046875 -0.171875 -1.921875q-0.15625 -0.875 -0.515625 -1.5q-0.34375 -0.625 -0.90625 -0.96875q-0.5625 -0.359375 -1.359375 -0.359375q-0.765625 0 -1.3125 0.375q-0.546875 0.375 -0.90625 1.015625q-0.359375 0.625 -0.53125 1.484375q-0.171875 0.84375 -0.171875 1.796875q0 1.0625 0.15625 1.9375q0.171875 0.859375 0.515625 1.484375q0.359375 0.625 0.90625 0.96875q0.5625 0.34375 1.34375 0.34375q0.765625 0 1.3125 -0.359375q0.5625 -0.375 0.921875 -1.0q0.359375 -0.640625 0.53125 -1.484375q0.1875 -0.859375 0.1875 -1.8125zm11.757324 5.90625l-1.828125 0l-1.78125 -3.8125q-0.203125 -0.4375 -0.421875 -0.71875q-0.203125 -0.28125 -0.453125 -0.453125q-0.234375 -0.171875 -0.515625 -0.234375q-0.28125 -0.078125 -0.640625 -0.078125l-0.765625 0l0 5.296875l-1.625 0l0 -11.90625l3.1875 0q1.046875 0 1.78125 0.234375q0.75 0.21875 1.21875 0.640625q0.484375 0.40625 0.703125 0.984375q0.234375 0.578125 0.234375 1.28125q0 0.546875 -0.171875 1.046875q-0.15625 0.5 -0.484375 0.90625q-0.3125 0.40625 -0.796875 0.703125q-0.484375 0.28125 -1.09375 0.4375q0.5 0.171875 0.84375 0.609375q0.359375 0.421875 0.71875 1.140625l1.890625 3.921875zm-2.59375 -8.640625q0 -0.953125 -0.609375 -1.421875q-0.59375 -0.484375 -1.671875 -0.484375l-1.53125 0l0 3.9375l1.3125 0q0.578125 0 1.03125 -0.125q0.453125 -0.140625 0.78125 -0.390625q0.328125 -0.265625 0.5 -0.640625q0.1875 -0.375 0.1875 -0.875zm12.866638 2.5625q0 0.84375 -0.140625 1.640625q-0.125 0.78125 -0.421875 1.453125q-0.28125 0.671875 -0.75 1.21875q-0.46875 0.546875 -1.140625 0.953125q-0.671875 0.390625 -1.5625 0.609375q-0.890625 0.203125 -2.03125 0.203125l-2.546875 0l0 -11.90625l3.0625 0q2.78125 0 4.15625 1.4375q1.375 1.4375 1.375 4.390625zm-1.703125 0.109375q0 -1.265625 -0.234375 -2.140625q-0.234375 -0.875 -0.71875 -1.40625q-0.484375 -0.546875 -1.21875 -0.78125q-0.734375 -0.25 -1.703125 -0.25l-1.40625 0l0 9.140625l1.21875 0q4.0625 0 4.0625 -4.5625zm12.616699 9.703125l-10.25 0l0 -1.3125l10.25 0l0 1.3125zm4.319763 -14.28125l-2.75 0l0 -1.359375l7.125 0l0 1.359375l-2.734375 0l0 9.15625l2.734375 0l0 1.390625l-7.125 0l0 -1.390625l2.75 0l0 -9.15625zm15.132324 10.546875l-2.125 0l-3.46875 -7.421875l-1.0 -2.390625l0 6.0l0 3.8125l-1.515625 0l0 -11.90625l2.09375 0l3.3125 7.03125l1.1875 2.71875l0 -6.375l0 -3.375l1.515625 0l0 11.90625zm10.147888 -3.21875q0 0.84375 -0.34375 1.484375q-0.34375 0.625 -0.96875 1.0625q-0.609375 0.421875 -1.484375 0.625q-0.875 0.203125 -1.921875 0.203125q-0.46875 0 -0.9375 -0.03125q-0.46875 -0.03125 -0.90625 -0.09375q-0.421875 -0.046875 -0.8125 -0.109375q-0.375 -0.078125 -0.6875 -0.171875l0 -1.5625q0.671875 0.25 1.515625 0.40625q0.859375 0.140625 1.953125 0.140625q0.78125 0 1.328125 -0.125q0.5625 -0.125 0.90625 -0.359375q0.34375 -0.25 0.5 -0.59375q0.171875 -0.34375 0.171875 -0.796875q0 -0.46875 -0.28125 -0.8125q-0.265625 -0.34375 -0.703125 -0.609375q-0.4375 -0.28125 -1.0 -0.5q-0.546875 -0.21875 -1.140625 -0.453125q-0.578125 -0.234375 -1.140625 -0.515625q-0.5625 -0.28125 -1.0 -0.65625q-0.4375 -0.375 -0.703125 -0.890625q-0.265625 -0.515625 -0.265625 -1.21875q0 -0.609375 0.25 -1.1875q0.265625 -0.59375 0.796875 -1.046875q0.53125 -0.46875 1.375 -0.75q0.84375 -0.28125 2.015625 -0.28125q0.296875 0 0.640625 0.03125q0.359375 0.015625 0.71875 0.0625q0.359375 0.046875 0.703125 0.125q0.359375 0.0625 0.65625 0.125l0 1.46875q-0.703125 -0.203125 -1.40625 -0.3125q-0.6875 -0.109375 -1.34375 -0.109375q-1.40625 0 -2.0625 0.46875q-0.65625 0.46875 -0.65625 1.25q0 0.484375 0.265625 0.828125q0.28125 0.34375 0.71875 0.625q0.4375 0.265625 1.0 0.5q0.5625 0.21875 1.140625 0.453125q0.578125 0.234375 1.140625 0.515625q0.5625 0.28125 1.0 0.671875q0.4375 0.390625 0.703125 0.90625q0.265625 0.515625 0.265625 1.234375zm10.647949 -7.296875l-3.515625 0l0 10.515625l-1.640625 0l0 -10.515625l-3.53125 0l0 -1.390625l8.6875 0l0 1.390625z" fill-rule="nonzero"/><path fill="#000000" fill-opacity="0.0" d="m376.7126 245.05678l201.7323 0" fill-rule="evenodd"/><path stroke="#595959" stroke-width="1.0" stroke-linejoin="round" stroke-linecap="butt" d="m376.7126 245.05678l195.7323 0" fill-rule="evenodd"/><path fill="#595959" stroke="#595959" stroke-width="1.0" stroke-linecap="butt" d="m572.4449 246.70851l4.538086 -1.6517334l-4.538086 -1.6517334z" fill-rule="evenodd"/><path fill="#000000" fill-opacity="0.0" d="m580.21655 348.59448l-203.4961 0" fill-rule="evenodd"/><path stroke="#595959" stroke-width="1.0" stroke-linejoin="round" stroke-linecap="butt" d="m580.21655 348.59448l-197.4961 0" fill-rule="evenodd"/><path fill="#595959" stroke="#595959" stroke-width="1.0" stroke-linecap="butt" d="m382.72046 346.94275l-4.538086 1.6517334l4.538086 1.6517334z" fill-rule="evenodd"/><path fill="#000000" fill-opacity="0.0" d="m174.99606 161.85432l252.59842 0l0 48.472443l-252.59842 0z" fill-rule="evenodd"/><path fill="#595959" d="m186.35544 193.89433l0 -16.796875l2.328125 0l10.265625 13.75l-0.390625 0.21875q-0.09375 -0.609375 -0.171875 -1.3125q-0.0625 -0.703125 -0.125 -1.5q-0.0625 -0.8125 -0.09375 -1.703125q-0.03125 -0.90625 -0.0625 -1.890625q-0.015625 -0.984375 -0.015625 -2.046875l0 -5.515625l2.59375 0l0 16.796875l-2.390625 0l-10.09375 -13.25l0.265625 -0.328125q0.109375 1.453125 0.1875 2.484375q0.09375 1.015625 0.15625 1.734375q0.0625 0.703125 0.078125 1.140625q0.03125 0.4375 0.03125 0.734375q0.015625 0.28125 0.015625 0.5l0 6.984375l-2.578125 0zm24.063187 0.234375q-1.84375 0 -3.296875 -0.84375q-1.453125 -0.859375 -2.296875 -2.328125q-0.84375 -1.484375 -0.84375 -3.375q0 -1.890625 0.84375 -3.359375q0.84375 -1.484375 2.296875 -2.328125q1.453125 -0.859375 3.296875 -0.859375q1.828125 0 3.28125 0.859375q1.453125 0.84375 2.28125 2.328125q0.84375 1.46875 0.84375 3.359375q0 1.890625 -0.84375 3.375q-0.828125 1.46875 -2.28125 2.328125q-1.453125 0.84375 -3.28125 0.84375zm0 -2.25q1.125 0 2.015625 -0.5625q0.890625 -0.5625 1.390625 -1.53125q0.5 -0.984375 0.484375 -2.203125q0.015625 -1.25 -0.484375 -2.21875q-0.5 -0.96875 -1.390625 -1.515625q-0.890625 -0.5625 -2.015625 -0.5625q-1.125 0 -2.03125 0.5625q-0.890625 0.5625 -1.40625 1.546875q-0.5 0.96875 -0.46875 2.1875q-0.03125 1.21875 0.46875 2.203125q0.515625 0.96875 1.40625 1.53125q0.90625 0.5625 2.03125 0.5625zm9.103714 2.015625l0 -12.59375l2.484375 0l0 3.953125l-0.234375 -0.953125q0.265625 -0.921875 0.890625 -1.65625q0.640625 -0.75 1.46875 -1.171875q0.828125 -0.4375 1.71875 -0.4375q0.40625 0 0.78125 0.078125q0.375 0.0625 0.59375 0.15625l-0.65625 2.6875q-0.28125 -0.125 -0.640625 -0.203125q-0.34375 -0.078125 -0.671875 -0.078125q-0.65625 0 -1.25 0.25q-0.578125 0.25 -1.03125 0.703125q-0.4375 0.4375 -0.703125 1.03125q-0.265625 0.578125 -0.265625 1.28125l0 6.953125l-2.484375 0zm9.625092 0l0 -12.59375l2.484375 0l0 2.6875l-0.453125 0.28125q0.1875 -0.625 0.609375 -1.203125q0.421875 -0.578125 1.03125 -1.015625q0.609375 -0.4375 1.3125 -0.703125q0.71875 -0.265625 1.46875 -0.265625q1.078125 0 1.890625 0.359375q0.8125 0.359375 1.34375 1.078125q0.53125 0.71875 0.765625 1.796875l-0.375 -0.09375l0.15625 -0.40625q0.265625 -0.546875 0.734375 -1.03125q0.46875 -0.5 1.0625 -0.890625q0.609375 -0.390625 1.28125 -0.59375q0.671875 -0.21875 1.3125 -0.21875q1.421875 0 2.34375 0.578125q0.921875 0.578125 1.390625 1.75q0.46875 1.171875 0.46875 2.921875l0 7.5625l-2.484375 0l0 -7.421875q0 -1.078125 -0.28125 -1.75q-0.28125 -0.6875 -0.828125 -1.015625q-0.546875 -0.34375 -1.421875 -0.34375q-0.671875 0 -1.265625 0.234375q-0.578125 0.21875 -1.015625 0.625q-0.421875 0.40625 -0.671875 0.953125q-0.234375 0.53125 -0.234375 1.1875l0 7.53125l-2.5 0l0 -7.46875q0 -0.984375 -0.296875 -1.65625q-0.28125 -0.6875 -0.828125 -1.046875q-0.546875 -0.359375 -1.34375 -0.359375q-0.671875 0 -1.25 0.234375q-0.578125 0.21875 -1.015625 0.625q-0.421875 0.390625 -0.671875 0.9375q-0.234375 0.53125 -0.234375 1.15625l0 7.578125l-2.484375 0zm26.994537 0.234375q-1.5624847 0 -2.8437347 -0.859375q-1.28125 -0.859375 -2.0625 -2.34375q-0.765625 -1.5 -0.765625 -3.375q0 -1.890625 0.78125 -3.359375q0.78125 -1.484375 2.109375 -2.3125q1.34375 -0.84375 2.9999847 -0.84375q0.984375 0 1.796875 0.296875q0.8125 0.28125 1.421875 0.796875q0.609375 0.515625 1.0 1.1875q0.40625 0.671875 0.5 1.4375l-0.546875 -0.203125l0 -3.25l2.5 0l0 12.59375l-2.5 0l0 -3.0l0.578125 -0.171875q-0.140625 0.65625 -0.59375 1.265625q-0.4375 0.609375 -1.125 1.09375q-0.6875 0.46875 -1.515625 0.765625q-0.828125 0.28125 -1.734375 0.28125zm0.640625 -2.28125q1.140625 0 2.0 -0.546875q0.859375 -0.546875 1.34375 -1.515625q0.5 -0.984375 0.5 -2.234375q0 -1.21875 -0.5 -2.171875q-0.484375 -0.96875 -1.34375 -1.515625q-0.859375 -0.546875 -2.0 -0.546875q-1.0937347 0 -1.9531097 0.546875q-0.84375 0.546875 -1.34375 1.515625q-0.484375 0.953125 -0.484375 2.171875q0 1.25 0.484375 2.234375q0.5 0.96875 1.34375 1.515625q0.859375 0.546875 1.9531097 0.546875zm9.754456 2.046875l0 -17.765625l2.46875 0l0 17.765625l-2.46875 0zm12.697113 0l0 -2.40625l2.703125 0l0 -12.0l-2.703125 0l0 -2.390625l8.015625 0l0 2.390625l-2.71875 0l0 12.0l2.71875 0l0 2.40625l-8.015625 0zm11.471954 0l0 -12.59375l2.46875 0l0 2.578125l-0.4375 0.296875q0.25 -0.84375 0.9375 -1.546875q0.703125 -0.703125 1.65625 -1.140625q0.953125 -0.453125 1.96875 -0.453125q1.4375 0 2.390625 0.5625q0.96875 0.5625 1.4375 1.71875q0.484375 1.140625 0.484375 2.890625l0 7.6875l-2.46875 0l0 -7.515625q0 -1.078125 -0.296875 -1.78125q-0.28125 -0.71875 -0.875 -1.03125q-0.59375 -0.328125 -1.484375 -0.28125q-0.71875 0 -1.328125 0.234375q-0.59375 0.21875 -1.046875 0.625q-0.4375 0.40625 -0.6875 0.953125q-0.25 0.546875 -0.25 1.171875l0 7.625l-1.234375 0q-0.3125 0 -0.625 0q-0.296875 0 -0.609375 0zm15.826843 0l0 -15.8125l2.484375 0l0 15.8125l-2.484375 0zm-2.609375 -10.203125l0 -2.390625l8.015625 0l0 2.390625l-8.015625 0zm16.033478 10.4375q-1.953125 0 -3.453125 -0.828125q-1.5 -0.828125 -2.359375 -2.265625q-0.84375 -1.4375 -0.84375 -3.3125q0 -1.484375 0.484375 -2.703125q0.484375 -1.234375 1.328125 -2.125q0.859375 -0.90625 2.046875 -1.390625q1.1875 -0.5 2.578125 -0.5q1.21875 0 2.28125 0.46875q1.0625 0.46875 1.828125 1.296875q0.78125 0.8125 1.203125 1.921875q0.421875 1.109375 0.40625 2.4375l-0.03125 1.046875l-10.296875 0l-0.546875 -1.96875l8.703125 0l-0.359375 0.421875l0 -0.578125q-0.0625 -0.796875 -0.53125 -1.421875q-0.453125 -0.625 -1.15625 -0.984375q-0.6875 -0.359375 -1.5 -0.359375q-1.296875 0 -2.1875 0.5q-0.890625 0.484375 -1.34375 1.4375q-0.453125 0.9375 -0.453125 2.328125q0 1.328125 0.546875 2.296875q0.5625 0.96875 1.5625 1.5q1.015625 0.53125 2.328125 0.53125q0.9375 0 1.734375 -0.3125q0.8125 -0.3125 1.75 -1.125l1.25 1.75q-0.578125 0.578125 -1.40625 1.015625q-0.828125 0.421875 -1.75 0.671875q-0.921875 0.25 -1.8125 0.25zm8.188965 -0.234375l0 -12.59375l2.484375 0l0 3.953125l-0.234375 -0.953125q0.265625 -0.921875 0.890625 -1.65625q0.640625 -0.75 1.46875 -1.171875q0.828125 -0.4375 1.71875 -0.4375q0.40625 0 0.78125 0.078125q0.375 0.0625 0.59375 0.15625l-0.65625 2.6875q-0.28125 -0.125 -0.640625 -0.203125q-0.34375 -0.078125 -0.671875 -0.078125q-0.65625 0 -1.25 0.25q-0.578125 0.25 -1.03125 0.703125q-0.4375 0.4375 -0.703125 1.03125q-0.265625 0.578125 -0.265625 1.28125l0 6.953125l-2.484375 0zm9.671967 5.28125l0 -17.875l2.484375 0l0 2.875l-0.375 -0.21875q0.140625 -0.71875 0.8125 -1.375q0.671875 -0.65625 1.640625 -1.078125q0.96875 -0.421875 2.0 -0.421875q1.71875 0 3.03125 0.84375q1.3125 0.828125 2.078125 2.296875q0.78125 1.46875 0.78125 3.359375q0 1.875 -0.765625 3.359375q-0.75 1.46875 -2.078125 2.328125q-1.3125 0.84375 -2.96875 0.84375q-1.109375 0 -2.140625 -0.4375q-1.03125 -0.453125 -1.75 -1.140625q-0.71875 -0.703125 -0.890625 -1.453125l0.625 -0.328125l0 8.421875l-2.484375 0zm6.234375 -7.34375q1.109375 0 1.96875 -0.546875q0.859375 -0.5625 1.359375 -1.515625q0.515625 -0.96875 0.515625 -2.1875q0 -1.21875 -0.5 -2.171875q-0.484375 -0.953125 -1.359375 -1.5q-0.859375 -0.546875 -1.984375 -0.546875q-1.125 0 -2.0 0.546875q-0.859375 0.53125 -1.359375 1.5q-0.5 0.953125 -0.5 2.171875q0 1.21875 0.5 2.1875q0.5 0.953125 1.359375 1.515625q0.875 0.546875 2.0 0.546875zm8.909576 2.0625l0 -12.59375l2.484375 0l0 3.953125l-0.234375 -0.953125q0.265625 -0.921875 0.890625 -1.65625q0.640625 -0.75 1.46875 -1.171875q0.828125 -0.4375 1.71875 -0.4375q0.40625 0 0.78125 0.078125q0.375 0.0625 0.59375 0.15625l-0.65625 2.6875q-0.28125 -0.125 -0.640625 -0.203125q-0.34375 -0.078125 -0.671875 -0.078125q-0.65625 0 -1.25 0.25q-0.578125 0.25 -1.03125 0.703125q-0.4375 0.4375 -0.703125 1.03125q-0.265625 0.578125 -0.265625 1.28125l0 6.953125l-2.484375 0zm15.018951 0.234375q-1.953125 0 -3.453125 -0.828125q-1.5 -0.828125 -2.359375 -2.265625q-0.84375 -1.4375 -0.84375 -3.3125q0 -1.484375 0.484375 -2.703125q0.484375 -1.234375 1.328125 -2.125q0.859375 -0.90625 2.046875 -1.390625q1.1875 -0.5 2.578125 -0.5q1.21875 0 2.28125 0.46875q1.0625 0.46875 1.828125 1.296875q0.78125 0.8125 1.203125 1.921875q0.421875 1.109375 0.40625 2.4375l-0.03125 1.046875l-10.296875 0l-0.546875 -1.96875l8.703125 0l-0.359375 0.421875l0 -0.578125q-0.0625 -0.796875 -0.53125 -1.421875q-0.453125 -0.625 -1.15625 -0.984375q-0.6875 -0.359375 -1.5 -0.359375q-1.296875 0 -2.1875 0.5q-0.890625 0.484375 -1.34375 1.4375q-0.453125 0.9375 -0.453125 2.328125q0 1.328125 0.546875 2.296875q0.5625 0.96875 1.5625 1.5q1.015625 0.53125 2.328125 0.53125q0.9375 0 1.734375 -0.3125q0.8125 -0.3125 1.75 -1.125l1.25 1.75q-0.578125 0.578125 -1.40625 1.015625q-0.828125 0.421875 -1.75 0.671875q-0.921875 0.25 -1.8125 0.25zm9.73584 -0.234375l0 -15.8125l2.484375 0l0 15.8125l-2.484375 0zm-2.609375 -10.203125l0 -2.390625l8.015625 0l0 2.390625l-8.015625 0zm16.033478 10.4375q-1.953125 0 -3.453125 -0.828125q-1.5 -0.828125 -2.359375 -2.265625q-0.84375 -1.4375 -0.84375 -3.3125q0 -1.484375 0.484375 -2.703125q0.484375 -1.234375 1.328125 -2.125q0.859375 -0.90625 2.046875 -1.390625q1.1875 -0.5 2.578125 -0.5q1.21875 0 2.28125 0.46875q1.0625 0.46875 1.828125 1.296875q0.78125 0.8125 1.203125 1.921875q0.421875 1.109375 0.40625 2.4375l-0.03125 1.046875l-10.296875 0l-0.546875 -1.96875l8.703125 0l-0.359375 0.421875l0 -0.578125q-0.0625 -0.796875 -0.53125 -1.421875q-0.453125 -0.625 -1.15625 -0.984375q-0.6875 -0.359375 -1.5 -0.359375q-1.296875 0 -2.1875 0.5q-0.890625 0.484375 -1.34375 1.4375q-0.453125 0.9375 -0.453125 2.328125q0 1.328125 0.546875 2.296875q0.5625 0.96875 1.5625 1.5q1.015625 0.53125 2.328125 0.53125q0.9375 0 1.734375 -0.3125q0.8125 -0.3125 1.75 -1.125l1.25 1.75q-0.578125 0.578125 -1.40625 1.015625q-0.828125 0.421875 -1.75 0.671875q-0.921875 0.25 -1.8125 0.25zm8.188965 -0.234375l0 -12.59375l2.484375 0l0 3.953125l-0.234375 -0.953125q0.265625 -0.921875 0.890625 -1.65625q0.640625 -0.75 1.46875 -1.171875q0.828125 -0.4375 1.71875 -0.4375q0.40625 0 0.78125 0.078125q0.375 0.0625 0.59375 0.15625l-0.65625 2.6875q-0.28125 -0.125 -0.640625 -0.203125q-0.34375 -0.078125 -0.671875 -0.078125q-0.65625 0 -1.25 0.25q-0.578125 0.25 -1.03125 0.703125q-0.4375 0.4375 -0.703125 1.03125q-0.265625 0.578125 -0.265625 1.28125l0 6.953125l-2.484375 0z" fill-rule="nonzero"/><path fill="#000000" fill-opacity="0.0" d="m532.4055 137.68898l252.59845 0l0 48.472443l-252.59845 0z" fill-rule="evenodd"/><path fill="#595959" d="m552.9639 169.72897l0 -14.296875l-4.703125 0l0 -2.5l12.140625 0l0 2.5l-4.84375 0l0 14.296875l-2.59375 0zm8.571472 0l0 -12.59375l2.484375 0l0 3.953125l-0.234375 -0.953125q0.265625 -0.921875 0.890625 -1.65625q0.640625 -0.75 1.46875 -1.171875q0.828125 -0.4375 1.71875 -0.4375q0.40625 0 0.78125 0.078125q0.375 0.0625 0.59375 0.15625l-0.65625 2.6875q-0.28125 -0.125 -0.640625 -0.203125q-0.34375 -0.078125 -0.671875 -0.078125q-0.65625 0 -1.25 0.25q-0.578125 0.25 -1.03125 0.703125q-0.4375 0.4375 -0.703125 1.03125q-0.265625 0.578125 -0.265625 1.28125l0 6.953125l-2.484375 0zm13.987671 0.234375q-1.5625 0 -2.84375 -0.859375q-1.28125 -0.859375 -2.0625 -2.34375q-0.765625 -1.5 -0.765625 -3.375q0 -1.890625 0.78125 -3.359375q0.78125 -1.484375 2.109375 -2.3125q1.34375 -0.84375 3.0 -0.84375q0.984375 0 1.796875 0.296875q0.8125 0.28125 1.421875 0.796875q0.609375 0.515625 1.0 1.1875q0.40625 0.671875 0.5 1.4375l-0.546875 -0.203125l0 -3.25l2.5 0l0 12.59375l-2.5 0l0 -3.0l0.578125 -0.171875q-0.140625 0.65625 -0.59375 1.265625q-0.4375 0.609375 -1.125 1.09375q-0.6875 0.46875 -1.515625 0.765625q-0.828125 0.28125 -1.734375 0.28125zm0.640625 -2.28125q1.140625 0 2.0 -0.546875q0.859375 -0.546875 1.34375 -1.515625q0.5 -0.984375 0.5 -2.234375q0 -1.21875 -0.5 -2.171875q-0.484375 -0.96875 -1.34375 -1.515625q-0.859375 -0.546875 -2.0 -0.546875q-1.09375 0 -1.953125 0.546875q-0.84375 0.546875 -1.34375 1.515625q-0.484375 0.953125 -0.484375 2.171875q0 1.25 0.484375 2.234375q0.5 0.96875 1.34375 1.515625q0.859375 0.546875 1.953125 0.546875zm15.051331 2.28125q-1.75 0 -3.140625 -0.859375q-1.375 -0.859375 -2.1875 -2.34375q-0.796875 -1.5 -0.796875 -3.34375q0 -1.84375 0.796875 -3.328125q0.8125 -1.5 2.1875 -2.359375q1.390625 -0.859375 3.140625 -0.859375q1.6875 0 3.0625 0.6875q1.375 0.671875 2.09375 1.859375l-1.359375 1.671875q-0.390625 -0.546875 -1.0 -1.0q-0.59375 -0.46875 -1.265625 -0.71875q-0.671875 -0.265625 -1.296875 -0.265625q-1.140625 0 -2.046875 0.5625q-0.890625 0.5625 -1.421875 1.546875q-0.53125 0.984375 -0.53125 2.203125q0 1.21875 0.546875 2.203125q0.5625 0.96875 1.46875 1.546875q0.90625 0.578125 2.015625 0.578125q0.640625 0 1.25 -0.21875q0.625 -0.21875 1.203125 -0.640625q0.578125 -0.4375 1.078125 -1.0625l1.359375 1.671875q-0.765625 1.078125 -2.203125 1.78125q-1.421875 0.6875 -2.953125 0.6875zm7.902466 -0.234375l0 -12.59375l2.46875 0l0 12.59375l-2.46875 0zm1.203125 -15.390625q-0.796875 0 -1.234375 -0.40625q-0.421875 -0.40625 -0.421875 -1.140625q0 -0.703125 0.4375 -1.125q0.4375 -0.4375 1.21875 -0.4375q0.78125 0 1.203125 0.40625q0.4375 0.40625 0.4375 1.15625q0 0.6875 -0.4375 1.125q-0.4375 0.421875 -1.203125 0.421875zm5.062622 15.390625l0 -12.59375l2.46875 0l0 2.578125l-0.4375 0.296875q0.25 -0.84375 0.9375 -1.546875q0.703125 -0.703125 1.65625 -1.140625q0.953125 -0.453125 1.96875 -0.453125q1.4375 0 2.390625 0.5625q0.96875 0.5625 1.4375 1.71875q0.484375 1.140625 0.484375 2.890625l0 7.6875l-2.46875 0l0 -7.515625q0 -1.078125 -0.296875 -1.78125q-0.28125 -0.71875 -0.875 -1.03125q-0.59375 -0.328125 -1.484375 -0.28125q-0.71875 0 -1.328125 0.234375q-0.59375 0.21875 -1.046875 0.625q-0.4375 0.40625 -0.6875 0.953125q-0.25 0.546875 -0.25 1.171875l0 7.625l-1.234375 0q-0.3125 0 -0.625 0q-0.296875 0 -0.609375 0zm19.920593 5.515625q-1.34375 0 -2.6875 -0.421875q-1.328125 -0.40625 -2.140625 -1.078125l0.90625 -1.921875q0.484375 0.359375 1.125 0.625q0.65625 0.28125 1.375 0.4375q0.71875 0.15625 1.421875 0.15625q1.3125 0 2.203125 -0.4375q0.890625 -0.421875 1.34375 -1.265625q0.453125 -0.84375 0.453125 -2.09375l0 -2.421875l0.265625 0.171875q-0.125 0.75 -0.78125 1.4375q-0.65625 0.671875 -1.640625 1.109375q-0.984375 0.421875 -2.015625 0.421875q-1.796875 0 -3.203125 -0.84375q-1.40625 -0.859375 -2.234375 -2.328125q-0.8125 -1.484375 -0.8125 -3.375q0 -1.890625 0.796875 -3.359375q0.8125 -1.484375 2.21875 -2.328125q1.40625 -0.859375 3.15625 -0.859375q0.71875 0 1.390625 0.1875q0.671875 0.171875 1.25 0.5q0.578125 0.3125 1.03125 0.703125q0.453125 0.375 0.734375 0.8125q0.296875 0.4375 0.375 0.8125l-0.53125 0.203125l0 -2.953125l2.46875 0l0 11.828125q0 1.515625 -0.453125 2.671875q-0.4375 1.171875 -1.28125 1.96875q-0.828125 0.8125 -2.03125 1.21875q-1.203125 0.421875 -2.703125 0.421875zm0.09375 -7.5625q1.171875 0 2.078125 -0.546875q0.921875 -0.546875 1.421875 -1.5q0.5 -0.96875 0.5 -2.21875q0 -1.25 -0.515625 -2.21875q-0.515625 -0.96875 -1.421875 -1.515625q-0.890625 -0.5625 -2.0625 -0.5625q-1.15625 0 -2.0625 0.5625q-0.890625 0.5625 -1.40625 1.546875q-0.515625 0.96875 -0.515625 2.1875q0 1.21875 0.515625 2.203125q0.515625 0.96875 1.40625 1.515625q0.90625 0.546875 2.0625 0.546875zm16.561584 2.046875l0 -2.40625l2.703125 0l0 -12.0l-2.703125 0l0 -2.390625l8.015625 0l0 2.390625l-2.71875 0l0 12.0l2.71875 0l0 2.40625l-8.015625 0zm11.471924 0l0 -12.59375l2.46875 0l0 2.578125l-0.4375 0.296875q0.25 -0.84375 0.9375 -1.546875q0.703125 -0.703125 1.65625 -1.140625q0.953125 -0.453125 1.96875 -0.453125q1.4375 0 2.390625 0.5625q0.96875 0.5625 1.4375 1.71875q0.484375 1.140625 0.484375 2.890625l0 7.6875l-2.46875 0l0 -7.515625q0 -1.078125 -0.296875 -1.78125q-0.28125 -0.71875 -0.875 -1.03125q-0.59375 -0.328125 -1.484375 -0.28125q-0.71875 0 -1.328125 0.234375q-0.59375 0.21875 -1.046875 0.625q-0.4375 0.40625 -0.6875 0.953125q-0.25 0.546875 -0.25 1.171875l0 7.625l-1.234375 0q-0.3125 0 -0.625 0q-0.296875 0 -0.609375 0zm15.826843 0l0 -15.8125l2.484375 0l0 15.8125l-2.484375 0zm-2.609375 -10.203125l0 -2.390625l8.015625 0l0 2.390625l-8.015625 0zm16.033508 10.4375q-1.953125 0 -3.453125 -0.828125q-1.5 -0.828125 -2.359375 -2.265625q-0.84375 -1.4375 -0.84375 -3.3125q0 -1.484375 0.484375 -2.703125q0.484375 -1.234375 1.328125 -2.125q0.859375 -0.90625 2.046875 -1.390625q1.1875 -0.5 2.578125 -0.5q1.21875 0 2.28125 0.46875q1.0625 0.46875 1.828125 1.296875q0.78125 0.8125 1.203125 1.921875q0.421875 1.109375 0.40625 2.4375l-0.03125 1.046875l-10.296875 0l-0.546875 -1.96875l8.703125 0l-0.359375 0.421875l0 -0.578125q-0.0625 -0.796875 -0.53125 -1.421875q-0.453125 -0.625 -1.15625 -0.984375q-0.6875 -0.359375 -1.5 -0.359375q-1.296875 0 -2.1875 0.5q-0.890625 0.484375 -1.34375 1.4375q-0.453125 0.9375 -0.453125 2.328125q0 1.328125 0.546875 2.296875q0.5625 0.96875 1.5625 1.5q1.015625 0.53125 2.328125 0.53125q0.9375 0 1.734375 -0.3125q0.8125 -0.3125 1.75 -1.125l1.25 1.75q-0.578125 0.578125 -1.40625 1.015625q-0.828125 0.421875 -1.75 0.671875q-0.921875 0.25 -1.8125 0.25zm8.188965 -0.234375l0 -12.59375l2.484375 0l0 3.953125l-0.234375 -0.953125q0.265625 -0.921875 0.890625 -1.65625q0.640625 -0.75 1.46875 -1.171875q0.828125 -0.4375 1.71875 -0.4375q0.40625 0 0.78125 0.078125q0.375 0.0625 0.59375 0.15625l-0.65625 2.6875q-0.28125 -0.125 -0.640625 -0.203125q-0.34375 -0.078125 -0.671875 -0.078125q-0.65625 0 -1.25 0.25q-0.578125 0.25 -1.03125 0.703125q-0.4375 0.4375 -0.703125 1.03125q-0.265625 0.578125 -0.265625 1.28125l0 6.953125l-2.484375 0zm9.671936 5.28125l0 -17.875l2.484375 0l0 2.875l-0.375 -0.21875q0.140625 -0.71875 0.8125 -1.375q0.671875 -0.65625 1.640625 -1.078125q0.96875 -0.421875 2.0 -0.421875q1.71875 0 3.03125 0.84375q1.3125 0.828125 2.078125 2.296875q0.78125 1.46875 0.78125 3.359375q0 1.875 -0.765625 3.359375q-0.75 1.46875 -2.078125 2.328125q-1.3125 0.84375 -2.96875 0.84375q-1.109375 0 -2.140625 -0.4375q-1.03125 -0.453125 -1.75 -1.140625q-0.71875 -0.703125 -0.890625 -1.453125l0.625 -0.328125l0 8.421875l-2.484375 0zm6.234375 -7.34375q1.109375 0 1.96875 -0.546875q0.859375 -0.5625 1.359375 -1.515625q0.515625 -0.96875 0.515625 -2.1875q0 -1.21875 -0.5 -2.171875q-0.484375 -0.953125 -1.359375 -1.5q-0.859375 -0.546875 -1.984375 -0.546875q-1.125 0 -2.0 0.546875q-0.859375 0.53125 -1.359375 1.5q-0.5 0.953125 -0.5 2.171875q0 1.21875 0.5 2.1875q0.5 0.953125 1.359375 1.515625q0.875 0.546875 2.0 0.546875zm8.909607 2.0625l0 -12.59375l2.484375 0l0 3.953125l-0.234375 -0.953125q0.265625 -0.921875 0.890625 -1.65625q0.640625 -0.75 1.46875 -1.171875q0.828125 -0.4375 1.71875 -0.4375q0.40625 0 0.78125 0.078125q0.375 0.0625 0.59375 0.15625l-0.65625 2.6875q-0.28125 -0.125 -0.640625 -0.203125q-0.34375 -0.078125 -0.671875 -0.078125q-0.65625 0 -1.25 0.25q-0.578125 0.25 -1.03125 0.703125q-0.4375 0.4375 -0.703125 1.03125q-0.265625 0.578125 -0.265625 1.28125l0 6.953125l-2.484375 0zm15.018921 0.234375q-1.953125 0 -3.453125 -0.828125q-1.5 -0.828125 -2.359375 -2.265625q-0.84375 -1.4375 -0.84375 -3.3125q0 -1.484375 0.484375 -2.703125q0.484375 -1.234375 1.328125 -2.125q0.859375 -0.90625 2.046875 -1.390625q1.1875 -0.5 2.578125 -0.5q1.21875 0 2.28125 0.46875q1.0625 0.46875 1.828125 1.296875q0.78125 0.8125 1.203125 1.921875q0.421875 1.109375 0.40625 2.4375l-0.03125 1.046875l-10.296875 0l-0.546875 -1.96875l8.703125 0l-0.359375 0.421875l0 -0.578125q-0.0625 -0.796875 -0.53125 -1.421875q-0.453125 -0.625 -1.15625 -0.984375q-0.6875 -0.359375 -1.5 -0.359375q-1.296875 0 -2.1875 0.5q-0.890625 0.484375 -1.34375 1.4375q-0.453125 0.9375 -0.453125 2.328125q0 1.328125 0.546875 2.296875q0.5625 0.96875 1.5625 1.5q1.015625 0.53125 2.328125 0.53125q0.9375 0 1.734375 -0.3125q0.8125 -0.3125 1.75 -1.125l1.25 1.75q-0.578125 0.578125 -1.40625 1.015625q-0.828125 0.421875 -1.75 0.671875q-0.921875 0.25 -1.8125 0.25zm9.73584 -0.234375l0 -15.8125l2.484375 0l0 15.8125l-2.484375 0zm-2.609375 -10.203125l0 -2.390625l8.015625 0l0 2.390625l-8.015625 0zm16.033508 10.4375q-1.953125 0 -3.453125 -0.828125q-1.5 -0.828125 -2.359375 -2.265625q-0.84375 -1.4375 -0.84375 -3.3125q0 -1.484375 0.484375 -2.703125q0.484375 -1.234375 1.328125 -2.125q0.859375 -0.90625 2.046875 -1.390625q1.1875 -0.5 2.578125 -0.5q1.21875 0 2.28125 0.46875q1.0625 0.46875 1.828125 1.296875q0.78125 0.8125 1.203125 1.921875q0.421875 1.109375 0.40625 2.4375l-0.03125 1.046875l-10.296875 0l-0.546875 -1.96875l8.703125 0l-0.359375 0.421875l0 -0.578125q-0.0625 -0.796875 -0.53125 -1.421875q-0.453125 -0.625 -1.15625 -0.984375q-0.6875 -0.359375 -1.5 -0.359375q-1.296875 0 -2.1875 0.5q-0.890625 0.484375 -1.34375 1.4375q-0.453125 0.9375 -0.453125 2.328125q0 1.328125 0.546875 2.296875q0.5625 0.96875 1.5625 1.5q1.015625 0.53125 2.328125 0.53125q0.9375 0 1.734375 -0.3125q0.8125 -0.3125 1.75 -1.125l1.25 1.75q-0.578125 0.578125 -1.40625 1.015625q-0.828125 0.421875 -1.75 0.671875q-0.921875 0.25 -1.8125 0.25zm8.188965 -0.234375l0 -12.59375l2.484375 0l0 3.953125l-0.234375 -0.953125q0.265625 -0.921875 0.890625 -1.65625q0.640625 -0.75 1.46875 -1.171875q0.828125 -0.4375 1.71875 -0.4375q0.40625 0 0.78125 0.078125q0.375 0.0625 0.59375 0.15625l-0.65625 2.6875q-0.28125 -0.125 -0.640625 -0.203125q-0.34375 -0.078125 -0.671875 -0.078125q-0.65625 0 -1.25 0.25q-0.578125 0.25 -1.03125 0.703125q-0.4375 0.4375 -0.703125 1.03125q-0.265625 0.578125 -0.265625 1.28125l0 6.953125l-2.484375 0z" fill-rule="nonzero"/></g></svg>